<svg width="106" height="44" viewBox="0 0 106 44" fill="none" xmlns="http://www.w3.org/2000/svg">
<g filter="url(#filter0_i_247_451)">
<path d="M13.0192 17.1742C12.8471 15.5253 11.5423 14.5646 9.43461 14.5646C7.25519 14.5646 6.03643 15.5683 6.02209 16.9448C6.00775 18.4503 7.55629 19.1242 9.34858 19.5257L11.2126 19.9845C14.7685 20.8018 17.421 22.6084 17.4354 26.0639C17.421 29.8636 14.4674 32.3011 9.40593 32.2868C4.38752 32.3011 1.19008 29.9783 1.06103 25.5191H5.24782C5.3912 27.6125 7.05445 28.6735 9.34858 28.6735C11.614 28.6735 13.0765 27.6125 13.0765 26.0639C13.0765 24.6444 11.7861 23.9849 9.52064 23.4257L7.25519 22.8808C3.75664 22.0205 1.60589 20.2713 1.60589 17.2315C1.59155 13.4606 4.91804 10.9514 9.46329 10.9514C14.0659 10.9514 17.0913 13.5036 17.1486 17.1742H13.0192ZM19.952 32V11.2381H33.8889V14.794H24.2535V19.8411H33.172V23.397H24.2535V28.4441H33.9176V32H19.952ZM54.2711 11.2381V32H50.5431L41.424 18.8088H41.2519V32H36.9504V11.2381H40.7357L49.7975 24.4294H49.9983V11.2381H54.2711ZM61.7775 11.2381V32H57.476V11.2381H61.7775ZM64.9824 32V11.2381H78.6611V14.794H69.2839V19.8411H77.7721V23.397H69.2839V32H64.9824ZM85.508 11.2381V32H81.2065V11.2381H85.508ZM87.9099 14.794V11.2381H104.915V14.794H98.5489V32H94.2761V14.794H87.9099Z" fill="#F26A08"/>
</g>
<defs>
<filter id="filter0_i_247_451" x="1.06104" y="10.9514" width="103.854" height="22.7159" filterUnits="userSpaceOnUse" color-interpolation-filters="sRGB">
<feFlood flood-opacity="0" result="BackgroundImageFix"/>
<feBlend mode="normal" in="SourceGraphic" in2="BackgroundImageFix" result="shape"/>
<feColorMatrix in="SourceAlpha" type="matrix" values="0 0 0 0 0 0 0 0 0 0 0 0 0 0 0 0 0 0 127 0" result="hardAlpha"/>
<feOffset dy="1.36632"/>
<feGaussianBlur stdDeviation="0.68316"/>
<feComposite in2="hardAlpha" operator="arithmetic" k2="-1" k3="1"/>
<feColorMatrix type="matrix" values="0 0 0 0 0 0 0 0 0 0 0 0 0 0 0 0 0 0 0.25 0"/>
<feBlend mode="normal" in2="shape" result="effect1_innerShadow_247_451"/>
</filter>
</defs>
</svg>
