<svg width="32" height="33" viewBox="0 0 32 33" fill="none" xmlns="http://www.w3.org/2000/svg">
<path d="M16 21C19.0376 21 21.5 18.5376 21.5 15.5C21.5 12.4624 19.0376 10 16 10C12.9624 10 10.5 12.4624 10.5 15.5C10.5 18.5376 12.9624 21 16 21Z" fill="black"/>
<path d="M16 3.5C13.4288 3.5 10.9154 4.26244 8.77759 5.6909C6.63975 7.11935 4.97351 9.14968 3.98957 11.5251C3.00563 13.9006 2.74819 16.5144 3.2498 19.0362C3.75141 21.5579 4.98953 23.8743 6.80762 25.6924C8.6257 27.5105 10.9421 28.7486 13.4638 29.2502C15.9856 29.7518 18.5995 29.4944 20.9749 28.5104C23.3503 27.5265 25.3807 25.8603 26.8091 23.7224C28.2376 21.5846 29 19.0712 29 16.5C28.9961 13.0534 27.6252 9.74905 25.1881 7.31192C22.751 4.87479 19.4466 3.5039 16 3.5V3.5ZM24.2198 23.8013C23.417 22.6382 22.376 21.6593 21.1659 20.9294C19.7744 22.2584 17.9242 23 16 23C14.0758 23 12.2256 22.2584 10.8341 20.9294C9.624 21.6593 8.58299 22.6382 7.78022 23.8013C6.37085 22.2165 5.44966 20.2581 5.12757 18.1619C4.80548 16.0657 5.09623 13.9211 5.9648 11.9863C6.83337 10.0515 8.24273 8.40903 10.0232 7.25669C11.8036 6.10436 13.8792 5.49127 16 5.49127C18.1208 5.49127 20.1964 6.10436 21.9768 7.25669C23.7573 8.40903 25.1666 10.0515 26.0352 11.9863C26.9038 13.9211 27.1945 16.0657 26.8724 18.1619C26.5503 20.2581 25.6291 22.2165 24.2198 23.8013V23.8013Z" fill="black"/>
</svg>
